<mxfile host="65bd71144e">
    <diagram id="gFnpcDw8JYduBvFRrEWZ" name="Page-1">
        <mxGraphModel dx="559" dy="376" grid="1" gridSize="10" guides="1" tooltips="1" connect="1" arrows="1" fold="1" page="1" pageScale="1" pageWidth="850" pageHeight="1100" math="0" shadow="0">
            <root>
                <mxCell id="0"/>
                <mxCell id="1" parent="0"/>
                <mxCell id="24" value="" style="rounded=0;whiteSpace=wrap;html=1;" vertex="1" parent="1">
                    <mxGeometry x="165.5" y="90" width="554.5" height="500" as="geometry"/>
                </mxCell>
                <mxCell id="21" value="" style="rounded=1;whiteSpace=wrap;html=1;rotation=90;" vertex="1" parent="1">
                    <mxGeometry x="213" y="260" width="425" height="180" as="geometry"/>
                </mxCell>
                <mxCell id="19" style="edgeStyle=none;html=1;exitX=1;exitY=0.5;exitDx=0;exitDy=0;exitPerimeter=0;entryX=0.5;entryY=0;entryDx=0;entryDy=0;" edge="1" parent="1" source="2" target="9">
                    <mxGeometry relative="1" as="geometry">
                        <Array as="points">
                            <mxPoint x="425" y="195"/>
                        </Array>
                    </mxGeometry>
                </mxCell>
                <mxCell id="2" value="" style="verticalLabelPosition=bottom;html=1;verticalAlign=top;align=center;strokeColor=none;fillColor=#00BEF2;shape=mxgraph.azure.github_code;pointerEvents=1;" vertex="1" parent="1">
                    <mxGeometry x="230" y="170" width="50" height="50" as="geometry"/>
                </mxCell>
                <mxCell id="11" value="" style="edgeStyle=none;html=1;" edge="1" parent="1" target="9">
                    <mxGeometry relative="1" as="geometry">
                        <mxPoint x="425" y="220" as="sourcePoint"/>
                    </mxGeometry>
                </mxCell>
                <mxCell id="13" value="" style="edgeStyle=none;html=1;" edge="1" parent="1" source="9">
                    <mxGeometry relative="1" as="geometry">
                        <mxPoint x="425" y="280" as="targetPoint"/>
                    </mxGeometry>
                </mxCell>
                <mxCell id="15" value="" style="edgeStyle=none;html=1;" edge="1" parent="1" source="9" target="14">
                    <mxGeometry relative="1" as="geometry"/>
                </mxCell>
                <mxCell id="9" value="pull" style="whiteSpace=wrap;html=1;" vertex="1" parent="1">
                    <mxGeometry x="365" y="220" width="120" height="60" as="geometry"/>
                </mxCell>
                <mxCell id="17" value="" style="edgeStyle=none;html=1;" edge="1" parent="1" source="14" target="16">
                    <mxGeometry relative="1" as="geometry"/>
                </mxCell>
                <mxCell id="14" value="build artifact" style="whiteSpace=wrap;html=1;" vertex="1" parent="1">
                    <mxGeometry x="365" y="320" width="120" height="60" as="geometry"/>
                </mxCell>
                <mxCell id="20" style="edgeStyle=none;html=1;exitX=0.5;exitY=1;exitDx=0;exitDy=0;entryX=0.406;entryY=0.74;entryDx=0;entryDy=0;entryPerimeter=0;" edge="1" parent="1" source="16">
                    <mxGeometry relative="1" as="geometry">
                        <mxPoint x="616.0050000000001" y="467" as="targetPoint"/>
                        <Array as="points">
                            <mxPoint x="425" y="520"/>
                            <mxPoint x="616" y="520"/>
                        </Array>
                    </mxGeometry>
                </mxCell>
                <mxCell id="16" value="push to nexus" style="rounded=1;whiteSpace=wrap;html=1;" vertex="1" parent="1">
                    <mxGeometry x="365" y="420" width="120" height="60" as="geometry"/>
                </mxCell>
                <mxCell id="22" value="" style="shape=image;verticalLabelPosition=bottom;verticalAlign=top;imageAspect=0;aspect=fixed;image=data:image/png,iVBORw0KGgoAAAANSUhEUgAAA5wAAAJ8CAMAAAClX17VAAAAPFBMVEUjHyAjHyAjHyAjHyDmPDiQLyzTODPd2tk6MjT248zw1rerp6d/bWL///+ArcBpZmczUGFHb4gjHyDOuaDj19T6AAAABHRSTlMAG3/J6f81JgAAIABJREFUeNrtnYly4ziyAHdsUyoLcEMW//9fVzxxEATBS5aozIkXb3am3XZMO10HCoX//Q8AAAAAAAAAAAAAAAAAAAAAAAAAAAAAAAAAAAAAAAAAAAAAAAAAAAAAAAAAAAAAAAAAAAAAAAAAAAAAAAAAAAAAAAAAAAAAAAAAAAAAAAAAAAAAAAAAAAAAAAAAAAAAAAAAAAAAAAAAAAAAAAAAAAAAAAAAAAAAAAAAAAAAAAAAAAAAAAAAAAAAAAAAAAAAAAAAAAAAAAAAAAAAAAAAAAAAAAAAAAAAAAAAAAAAAAAAAAAAAAAAAAAAAAAAAAAAAAAAAAAAAAAAAAAAAAAAAAAAAAAAAAAAAAAAAAAAAAAAAAAAAAAAAAAAAAAA/pD/PPjvAfAMTn7c+Qyp/iGWAvyRl7WUtxSVpBgK8GAxJ7zEUIDHm3kX8zaXT/wE2NvMz/lm4ifA85qJnwB71pnrzGy415/8twTYNmjeNuITPQEelc6KGKNVj9baiEhKT/6bAuwfNEWrsvwOuFzKUlWKjulJ8ATYV03RQzEd7oaOCUpuC7BSzVTQNOryPcmlvEdQgifAA6NmlpptBFUxPwmeAH+s5qif2AmwyM1krTlTzcZPLaS2ANsWm1KdlBinDbRAzbr+DMMnhyoAK9SszDzfUbZD+72cQE/sBFhabEpj5p02cppcNS/eX0526+uJnQAL1BTTmdlltZPF5l3EBF30pC0EsKYPZNU8K8nIaC+ZVLWnYCfA0mLTUfPctllFrfXS4nZusRMgP6N1o2aX0Y70aC/LUNgJsCCj9dRMhc3LckqDnQBzM1qrpjatm9Fq87IK7ASYFzZFO1GzD5uXjc2s7dTYCTCFrTbd05PezXIHNbETYE5K64RN07tpdnKzatoyjQCQldLasKmtm8Mu7WUzSuwEyHLTC5vGNLF0PzXDrhB/FgBRN8UPm03gHJ6gXC572ckNMoAJN03CzcvmlIKdACk3TeimeYyb3qwQdgKMu6mNDZyhm5d9cOZsOVABaPlIuXl7RNzkQAUgx03Vu1nJqR+jJk0hgNGkVqJumstD3Ky3I1B2AsQCpwxy2qobFMzs7ahmtRxBSGwBBoHzD920v78mdAIMAqcJz1AiBefebn5fnLKTPxl4+8CZctMvOHd30ys7SWyBwOk1g6TnFp6ipOy6fK+Xs/4ftuwksQUqzj5wDh4yyQicq+NqtwW+fmpXjDaETgAnq70HzsgbmjIZODeoSCM7bKk6AWxWG33dVi7ZbtZ/v9RNdzbIhbwWyGpHXxFLumkfJqpTUqPLhXKOuEleC++sZvTxzbtnpplC1yk5u39hq0RZoKc/esDbgABjYbN+5q8eRfDz2pyhnnoH2AI5zWjoJnQCbvYL3v13Ufr5oDE3y1AsM1/O5mizO7whdAL8L0xp7TN/Nd4559hDYUOfyiVyVvG6LMuqdqUlBBDEzUDN9mkUPdfNm54tpxJTOnv4eLYTcDNIaF0xdbcQ06SSWh1r5Kj51zhV8D+Fo07AzeGzKM2G934jZjMiNOmmiK4xbhDcYostRSe8YcHpdXGGZnbrai+jgdMGOOeAsyw3mYW33pPXwjsHzsGi2kk5vesjRu1wU6U3HznhjQNnZDmJL2c0cHYXL0VfdqGzk7wW3jdw9m4akyunM3En6nLZ107khHcNnK2bg7Bp5YwGzlIWDgTNXpRJXgtvGjg7N42Jy2lGslq9u5vd+wzICe8lpx0ZGHezlTM1cacue6IpOuGNs1qTcLOdEIoP9SwaBloWOpET3ok+q1UJN2V03qfNas1lZzR5LbxtyWkSbqbkvMjeBWcTOpET3rbkVMEO6YGcIwLWCae+7C6nMF4Lb1py1q3ascA5Jef+gbPNa+kIwRvKaVJu1nKa8ZC2f+BETnjfklMn5Uz1Y/VDAmdbdCInvJ+cKuWmSV3OLLW6PEJOoSMEb9kPkkk5HxIeB0Y6nxQ54U3lTLRq237Q8mpxudbKua9tkBPetR+UCJzrTkvM8g9VzlSg5iwFkHNjOWV5RqycHjHtWkDOeD9oqWDVVeylYn+XzkC9Qk54VznNDv2g9vl4yez5xK6KGk9OzlLgbfpBdrJWpeU0S9WsJ+PHD1tKM6Z9vepP7E+F5iwFOeFN3PywdzknSk6z2M17bpr4aDc2Rj7Y2GKXg054x7iZIade7KYX/mJyRv9l9zSSTaiRE97SzXRaK0uWtztP7eqE25VyKhF17eQucsJbujkp56Ln/L7ty4CjHz8yN99/rLGfGznhHd3cXs5v95H61MUVE/3N3ajbfSxywnsQvPk3KeeKwOlVjtGrYGr8o53rosJBJ7yhm5NymlVyVoaNvWqkYoeoTtS1odOwgQ/e0M3t5fTt1OP93viaE/vCvZXX8CgDvKGbN5mQU19Wh86x30NGQ6f999qREzvhrdyclHPFDEIfOkfs1BNrb3W3slrzUCccHbdPWxShnHL/axM53TGE9pBSj+a14wvjm9dzq4qVZ3ThjdyU4qvoNyHcJRT7OvUWcoZ9nxE7TWefPw9flkpV72Pfuo/UN+yE94mbX1ZO+zj1wE9ZswfBUzB6oDL0trw7Kf7XYzw5sRMOHze/vk69i8M6dNWEUHx7no5eTAm9VcOvpfTlxE44ety0ckYRe2Vstpz3lFQ5dzWb0jGeHjcuOontQE6/IdS8zICdcCw+Aje7tDZt54JbKU2bR0ytaKm03MblbGZ/nE9RyjBuDpRlkA+O7eaEnK2dCzpCrkmOajrxi8NlXv2Ht+v7wniKnXBoN09DGbUxEti5oOhUcdlVolvkfg49ULP9LcX5aUJiC0csODs3vfzRVB7UgznK+tnmtXPlLKNumvTbuG7ZqUWqrLgMKlE5FTSF4A3c9JJao4I7mH7onFt06pib5cSv1qnVX62czg8U7ISDuGmT2uI0SGpF+/N236Vr54Kis9SDw5nU6nfTfRUTmfJdTsdOyk44WMEpp0HgFPUd0sVOWXrSedfTK17V9DtFyc/Sy4mdcLDAOXTzSxJutsPqbdW5cAyhrAbw7lQHKnlpcOLTWDkLIbGFQxecNqu1bl5Kb2ueI+fuL+TqrLq0ONV2UnbCIQvOzk2b1equzjRNh9RuF+ny2gfIWZrUUagvp2MniS0cpuC0bvZySnu3WfdVZumGTmnXSu/9QGcpaTtdOSk74XhJrS04bcmp/BqzHdbp/0l7QWT/13PbFtTY3U5PTspOOLKbp37e1U1ib/ZM49ufcd3/aWt9S9npyekmttgJB0tq+36Q6nNYCe6BXB4sZ7cmKB6kfTkpO+FYgdN1s79nXbaBU1Spg5sgOmMudo+mUNRO48t5IrGFgya1X13oabNabYL7zDoYXzcPiJx9Uyj2yWo5rZtO2UnohGMltZ2c7TlKPSXQrPPR/WoCW3SKfoSbfVMoZqcEcpLYwjGTWvu9rb77JbH9etluXWWVZra3Qy4PojvPGXzG5vq2KyeJLRwlcPpJbSjndxu2TJ9CSj1/d6d8mJnudZbQzoicJxJbOGJS28kpTuS0jwqV8oiDzbSdQWYbk7Pg4jUcMKmNpbXaGqkf055NtWyDnw4qaNYGiS1/1HCIpPY0Lqcpk4/a/qGdOiYnPSE4VuD0v7G1L6fjwl/JaZvEakpOayc9IXjZwPk1kLPNCbV90csV8i7IrnLaZ8RSTaHEDAI9IThI4DwN3Wy/r80lKuf9f6i95fyeCp0qdcxJ6IRDBM4i4mbXrrVyKm+z865nm/b8JhU6y3SzltAJrxs4b8PAOQw6qrdk71R2rpySIyehE44XOL2O0FPKaaZOUnw7CZ3weoFTooHzdHIm37umi36om9/pu2PTzVpvAJ7QCa8cOGPlWn1nrAtPD5Vz4izFO+Y0o3ISOuF4gdPNazspHiNnmXazzWr1QNcROQmdcLTAeXKuW/dPlDzmXtglpWZ3b0xfMvpBhE54wcD5OQicY8cQ2qrykGF3EfU9vSjey2rtRmlCJ7xB4HRD54On8/T35BMr/pqv8X4QoROOGDj7b2r9UDnV6Niuo2YwAmHSchI64WCBs89rHxs69chdUedhMhO7aT0upw2dyAnPT07gtN/U5vJYOSNzu86DvcPFtcmS0xsT4k8enj6rzQqcdjJVP1hOEwZNc0vtEtMTcp7Ia+H1stpk4LQhR9RDa053RVB5N1Nu6TV/6ZKTlhC8YjuoSLtpQ058Y9Auu73a+R+tlVJa+0/sDtZ61Ss7p0pOQie8cjtoMuRE7FQ6eSK59tWF6v0H8V9oKQctIp2V1RI64fXaQVNuOvchw8y2aZ7q7+3tVJ6S9l36QdSU9keGmZbzhJzwou2gRMgZ2erertnaQ07/DZbGzGGpqfonezOyWhs6yWvhEO2gYINd9ZZRGN3UHnKWTm+23icfSamNzbWbJ1sy5SR0wjHaQaGd9+ipyjvKbqf8XmtndN6grHtBo+vku0NPdcksOd2WEN8AcIys1n/DvY1lTh36vVpOPXsZUT+PYNzu7pSc5LXwQlltPx2UG3QGpaD6Xi+nusUT18nR966BnJXVktfCAbPaMLMduLlAzm/3wqauw/E9iZ0UNJhHUO7Jy6ScHHXCC2a1p9MyO/X3Mjm//RVB/XvVVe+nqWkjmpbqLqYXwvVlTlbL9DscMav1T1TsW9aXlXIOnlewRa2YGn3/647qlkZH3GzPXYoZcpLXwqtktac8ipGkdrGc0aOTKHogsDOKL7ly0q+Fo8p5Knw9pfxeaOfwg5wuTwwzlFP7B64y58cLRSccKavt9JSYnMvfQbHFpUoFTwnldLYAmttsOclr4dnlnO1m42cvqFoVOdtdXfqSoWcop7MIoczPam1ei5xwrKx2EIAWy9k9jaT8yy5laUaS2/svKkeudOr8wEleC88uZzBXe1osp14jZ98H0v55SdTPyuD4aq9ZgZPDFHitknO+nN3tK1krZ61WeE+0HjSQoZymuZwSTCq091eKeV85eS08JauzWncn37idZWrex3nfYbhJr5l717pytKX6JUpHhuDbwCkzv3LkhFcoOU/L5UwXnUYnQ+claae1tBwZGFoUOCk64dglZ2bRqZM7wbzpILN0E1HXJTohJ1ByBttsE3KqkZ1gseAnC+2cGzjJa+EV5FyR1dqOULLozH0G24wuvMwNnMgJR+wHLZNTcvJak7mKutuEOV9PM9tNm9fynQBP2w86rZGzz2u/k3ltZrrariOSjAudw+XTM1q1FJ3wEv2gtuQ8nTbKa0ciYn7Z2S3ZU9k7ERYktYwhwOv0g5bKmTXBp3PfWPFujFVXOdvVXh2qYhBX9YLASdEJB+8HZfZr69Cm5wTB28S9sdjm6QI54Vgl50o5h0NCY0VhXmKbYWfwG5VmkZv9jxXkhOeWc7GbmcPvJt9OMyWnjtepS+WkIwRP2g+6nVbK2X2TSyqvbQJi3sO7E7sQRG+S1CInHL1Z6yz8Si8SUjMe3lVGxtVUI4G2WNpopl0Lz9qs/VorZxeCTPremI5EvUT0HPopw2tiTlIrywcokBOeuVl7WoXkbBKqQ9yMZ7Gru2LGGDHVbkytR449+zcCi+Vy0hGC48pZZO1DqMvO2YPt5aXM6u0Wy1tZyAnPxeeGcrbf5lNL+JSsuHYy9XynICccpR+0g5yTq4RqO82GdiqnJC0Wy8noOzynnKcN3OyrzsvEKiF929ROf2CBsxQ4lpyypZzTW/g2tTMcJmIKAY4h520POSdD55Z2DkeJimUHtMgJbyDndOhsjNqiKxQb8yuYQoADyblFP8jejZx+NWUrO+MD8gVTCPDyeANCm7mZs/u9tVOtPENx3mRYbCdywjPLWWwwgiC3WQ+OtfmoXhM2tfMZf6/eF8CIECBn/CVdc8m1c3lbyL22Itff31/PzgI5ATkjj1xnPWrU2rkwtfVXmfzWLLMTOeG4chYS21Mw/ahR59eCJZj+bc/r7+/QzuzCk/k9eHY5t1Qz104de8Vv9kXs3s1ldiInHFPOohjdv5XzCn1nmVGL1XTd/P29zrcTOeGQcg7Cpiy0M1vPwfoSz80lsRM54YByhmrK9eqGLlEZdtrGjple8B556PoqUn3akdgpyAnvKOdQzVCOey2Z8dS1DYUTtWdi59e4nQVywtvJWUTVDOQQVabsbDe423AoY+GzvJuZWscnY5nttJ3ICU8u57qwKeOhq42esUDYPiRf7QhyPsBof09Q9ea8mVwyPfoFTBaeyAlHkjOl5kCO2raBnWXKt/p5FK2VrrZ7Sc7bDCvsRE44jpzB8Umo5kCObp+lGxDLPONmIEvtRE44jJyTaoZln6to9V5YVWZu7uY9dC60EznhIHIWkjpljNk5OAqtWBwfxR+grRB7kOPYmX3gyWwtHEPOYjxY+YmtbcAqJZvEySY3do5TiqJ9REK6r8b7enLH4JETjiCnHzZlVE03rzQ/P2el4m2de+TLE1dENz1c62bRvlpo7bwm7EROeFE5JUvOzIy2lbOzU84/FefzuX6P2tj2q7SXYYrh7PzdRV1nsFUKbB9hsONEYtW8U3R57XW08CzYhAAvhd0htFEjyKp57RNb09hpOTdPm7Qvm9WCDvwUVU0o1L2j+LMLrptfJ5vXenpekRNeXs7T15Zhs5Xk2g/NhnaK85j2iJ+RUb4+pRVfzTviyhm1U5ATXlTOmdVmhplO8BR19qJnEzkHhp2SetqNQUHY/Lr/ZCk8OWN2Ckul4bXk/MyUMztsXgP64HmvOXtB1TBwdsVjEVSe5eD2ihs2wzeUrkM9BTnhpeW8bRQ2r0Psfc3ez7MZlfPrKyxtq35QhQzC5vCnhyPnYAwfOeFF5Sy2qDavccTeODk3SELOgZ7BqE8kbEblDPcKTcvJtwM8FdNyTsy4T6rp5La1n3dB1c0tOU/tX66eY2efrtARxcT/tJ6cBdN78Fp8TMhZpHeC5JjpBs9mzseMP8/S154jW8NOSTlv14idyAlHlHNk18FcNQM9J95OiuS20h+zFLPkvObIyYAQPLeckuXmYjUjetZyxnXpD1akrzM7+2bKWemZe8yJnPBkHaGEnHkp7TUfv+eb2GPttYaKVsXCXkM5nbLl7Ape4QVAeFE5b5Nnm9GU9jqXeXLWY3n9Nnpx09zBx0pazsmSEznh2eQcb9cWk2HzuoQZcjaxu5ez6MQ8RSLnqJwycZDLMSe8uJzXjdR08syvdM3Zz9r6ckp8BmFKTpneg4Cc8DLt2iK9JWgNUw0hbwi+X9tZeB2hWBIu87Na+kHwgu3aYrxLe12JTMtpL2H3d01dOeOSISe8mZzXjdVsjTlN1Jxd+BRPo9GdDUk5E4P99IPg9YrOIh43r9f95XSOOu1X1h10nmbJKVPTifSD4HXlvG2uZoacJ2f/SOGeuo7KOdIPuuXKybcCPB3j7dr4+5ebILnvsxT94MHEKrIiJaew3QuOVXTKfqFzlpzhnbH5crJ6D14zrx2dEYp2hLbLa7PklNg2zWIsxC4vOekHwWsWnbKLnKkRoYScdtP7IAcfk1NO9IPgWHJaM6675LWnSTedUYTqmnbwrLVIU432JemCrJbLnPCaReeOoTOr6CzcN3Xr/SbKJJ8Zo+SEY8qZyGtvf1J0Ft1TK1p1y4fO7T7qXDlzs1pKTjhCXrth0ZnOa4t+5a2HGn10l5ITDkfGxRTZXE6Zej5J4m42enYb9czvr3HeMyOrhfcrOvcJnQk5C2dXfM+P42f9E+NfQ//e4Fw5C+SEJ89rb3+U195GX2ixrSBj1WzfKqupnmYw/yzXqJ1ktXDcojPWEto0r52eC9Kum72eJpAzbmfuQQqDtXCMvHZDOSVj8qBNbOsnVoxR50bPSs5fV85/v5Gyk5ITjiJnKq+VXfLaWOhsU1oxbVtWOjnrVxx0Ez0rOf/5XAehk4MUIK9dLufwExbdD4N//4xTdnZvk4l9CimQ89/gRmd2Vouc8IJ57emxeW2vpul1axPbTs72meyYnNew5iSrhUPntZGjzuteobOwyxecYNiEzi5cto9k3/9WAjd/QzfJauHt8tp95HQW7tk2bJvYtqHzrLoH7M8ROSVsB0lm4CSrhRfNa+UReW3h3T8J6simJ+Q+Wx+T83fuQQoTCEBem15fW933cs9OZNjlqUOnL6fEfqGQ1cKB81p5ZF4bm2A3QbJqoqFzKOegG0RWC8cPncO8dmZ4zHnWaMzNLnTqoZxXL6kdBM5r7oISslp48tCZkdcuknPkEvRI6By6GQ+dlZwmI3DeOOSEt8hrFxWd9cflhs6Im/HQeQ5+8bAbdM18v4jACe+a10ojdeZ7ujE3behs595jcg6TWrJaeKvQuYOc1a8QaX/dv38JO+uG7dmIVDNCyk9rryO3xTLeLyKrhUOETlks52/OqYoZkfNX2jGhdoJPNf/f+eW3kcBJVgvHagklQud8OXunl7vpnnXWQdTUckoycF4JnPAWoXNFXit9wJ3+VaNy2tCpbeSUVDdoqldL4ISjhE5ZLKf9qKlhBPn3Lx0668spprmX4skZ6QZNZbUETnjNllDGU52zIueknLd0VuuGzvZqp3bk/J2/2YvACa+a18rojPgKOX+XB04ndP70N8ZMKnBOZLXCWC28GOOhM8xrN42ct2k5TTCI4Mh5Hd1XKwROeIfQuaOcElywToTOfobP9Ou9okntxCEngROOVHXK0qJzOq2V9IDQYBDBH62V0cB5mw6cyAnHCZ2L5PzNipwTTSFx9pVUcrZXsq/Rl//SWS2BEw5VdS7Oa6fldKffxWSFTiVtmK3auHOfs6bihNdMbG9jj9CvljN3+N1khM7+mDPaDUoHTnt5nMAJr5nYFumic4ac8ps1hDClp3FOU1SbAUe7QROBUwic8Oqhs0gWnZvKGd7rjOrZn6ac7UmKjAfOMTn7wMlwEBylJ1QsHEPI9FlCPX9TgwjSnKTEu0GjWa2/SozACS8XOsd6QrKs6JSsyJmjpw2d56YfFE9q41ntXcvgExA44XVDZ/D9vbecQz3D7LYfRGiatb/xpDaS1fq7N7u0llNOeN3QKVsUnTLnI0KHfD370xRdl5ySCpwyfONhqCd2wjF6QmvlXLbK1stuu2VCdT9obK+f96VHYyZ2wsES26AjtJOckWW2YsI9fFVW+3tLBc7mKx8PmtgJh0pslxWdMv/0RW4j4bPdw1ePIIwktVf7hUeDpojXGKLuhEOEzpVyrnunofGzrSfvWa2MJLV94IyrWT9hrwwHKnAsO4vHyTnipzH939+SgfMWV1N310GVIbGFIyW2yzpCC9La8WeO/CncrMdXImp27/ASOuEooXOGnDJ3fC//FTLLnF8vRvlvCP50dn7yhw0HsDO/XeuYs0bOpG/tTwFpSWlstPoZYJgUgldPbK2dfkco82mx+YcveXbKRFx10tkwaNqHyshr4SXtvA3KzvyOkBPaMi5bOyZOR8F5jJn589M+7UBLCF46sZX57dq+YzO54KuWcUMdk4UmoROOEToHZeecjlCXe8bz4KpUvO2M152NYmgJwVHKzjlnKa57/Vsp26asaTXVlJrNO4LktfDiZWdr54zpWgkaqw+zsu3PDtuz57O64z2Pbchr4fXLzsZOWSjnwwkz2mpkr3p2NwinmrwWjtAUKmadpVwXJKJ3TEhuIlx/pDbt0KzpN8M3ajbTesNo2ua1HHXCa5edlZ2ZcmansK2Puko3Oxynftp/dP/X2oSWinfBRJ3dHo8n59m0y4fo18Jh7QzPUpYntLWTrZI/uZxrRfszmvZr6OT0dHOeI2uj40jr1nDUCQexM6ddO6WlMbWUP7Opg6jxnvC1chpft/4TnLtQmpxDIK+F1yw73cx2uZxVsNTLrHTlVIGcv6Gc5/6ZXetmpHVLXgvHagrdblNyVv/srmFYfopWarmVSTm7aQc/U22LztrN1JjQmTkEOJid45Hzd0BVg5qfDWjklBE5z16m2j7kqaocOmtIiLwWDmJnKq0d2LmpnOdQzmsoZ/0rJDd/Vly5hmPZmWzXRuSU/eVUfqaqgoPOloGyiqITjmVn+iwlIud5MzlNXM6b8sd+tNWw2uclblfKO0sV8lp4bf77mCFnIOj1IXJqP1M1vYFn8eYWqvPV2C4h5IRj2HnNvT7dyan2kvM6OOhsbLQzQqoeA9RtVhv+lDhrik44VGZ7nbV3xEs6N5XTGUhyxgzEtmszxo4oOuFQdsrfyand+6Hute6zdzyS267t5aTohGPYOVtOvZmcKlxY25WUZ6/ozJSzGwhETjiKnbPlNPvJOWzXquFZCnLC4e38XPLSWGLwfBc5646QzpWT2Xc4VuycGzllOzllRM5huzb80HNcThYJwSH4b0nklK3lvE3IabyzlGZDiXR3SM/Bb4mccCw5r/OeMnLbNXvJGbRrezmVhBdKraD9QCBywuvL+bngoFO2OUuZJ2d/0FnP1Wqt3c1EnZ3ICUeV8/pMcgbTtTlnKWdXTv5w4Q0j50ZnKWNySvQsZa6cTAjBq7Mkcm4q53lUTj37oPPsNISQE95VTtlfTjOQszk/OWeEYuSEN5bzvL+c56icUZzfTzGDAIeSU55QTulbsKq9bp2FoVkLx+BjSeTcpl07Jqd3lmKDocmUk6wWjiWn/J2cZkzO+6dwM9VMORXXOeHd5dQPkPO8QE6yWnhrObc5S5mU03hyCoETkPNBHSFHTpktp1J2O+aw4qRXC8j5yMhpdDdRW19JuUn35qBWQVJLVgtvLef6jtDZWSIUlbOLlUpPPHTWn7JotnvBMeXMdnObdm2enEoZSb0/qJ3EVrPcC44nZ33QOU9OvZGcwz0l/RSCfV03+i59UG9aiwmccCQ5737MlNPsLmcikw3FrCJs/2EfBE44lJyhIfvv+Fojpwpbt06EJamFY/Cf9z3/0HbteepCZ2/b58ed/2o+vGpT1e1bEfcjPklq4YBy5uu5q5zeS/eflZbxUB8FN+Ewcn5ZBEk9AAAENklEQVTelui5xVnKeWryvSofB/Xj4AsO3CSnhSMWnTP0vG3Qrh2T08lRP3J+nHhhEzfhwKEzS88t2rXnwYiQXzyOTeH99/HxGRXTz38BXj90xr7TJUPOtUWnK+dAy3SOWnWG7ny2NO0i/ijhLWLnpJ4byzmSpWZ88fz5wfsFz7SeG3SEzs78Hs0dgLE0cW5y+wA5cROgbbPM0vO2viMU3I8etnf4QwFI+SkJOc+7yUnUBFgaPjds17YT6/VzYYrb0gCz9Bz6KeuLzrMjp3TXMs2NZ4gA5ukZuzmiNoucwoIugBV63jPPPTpCyAmwgZ6NonJtBnrkvNVwrQTr80hrARbpeRs+Po2cAE+lp9peToOcANN6/vfxeDk1RykAG4RPs72cPK8JkK1nws91RaeTyTobuwQ5Adb7uZ+cnKUAZJefUUHV9nIa5ASYLWi9fuBu6f3/tig6XR1VUHTSEQJYyGf3ENhG74wpOkIA2/CxYdHpy0nRCbAux92w6AzkpOgEWCXn53ZFZ1ROik6AdXntFnJqX05N0Qnw10VnXE5ujQFskteqbeTUjpx0hABW0cqpt5HTnM/cGgPYtug8r5ZTxeWk6ARYmNduVnQiJ8CTFp2hnIZ2LcAmee0mcspQTjpCAH+X10bW7yEnwFZ5rSjkBHjOvHZrOdtzTuQE+MOicyinUkZuNIQAtslrz2sPOis5VYVxXp/nKAVgOZ8b5bXS7JGf/eY8AKTzWr2FnAMInAAr8trVE3xee9aDdhDAExSdJvLqPP91ATbIa9VKOfUgbJLTAmyT164sOpUXND8//sNNgOfIa5UjJmYCPFFeq7pCEzEBNpbTrB8RYuwA4JnyWq5XAzxlXsuqWoCnzGvPZ+QEeMK89uzBHmmA3UKnaHVeaCYviwHsKWflp8kTdKimZvcBwG55beunGFM9rJBtprqLae+KISfAPqHThlCjlIooOvDSCDdRAPYLnbcoUkVRXe836G3sqKwU4QonwAPz2hFNHRK/kMAJsHdeuwyOOQEeHTrz4A4nwPZ2fqzX8xM3AfbR8+PzEzUBntPPWtAFhtYXrPnvB7C3oXdFM4PoZ2VltfgAMwEeqGgtae2px0dL/SuQEuCvXe3/AgAAAAAAAAAAAAAAAAAAAAAAAAAAAAAAAAAAAAAAAAAAAAAAAAAAAAAAAAAAAAAAAAAAAAAAAAAAAAAAAAAAAAAAAAAAAAAAAAAAAAAAAAAAAAAAAAAAAAAAAAAAAAAAAAAAAAAAAAAAAAAAAAAAAAAAAAAAAAAAAAAAAAAAAAAAAAAAAAAAAAAAAAAAAAAAAAAAAAAAAAAAAAAAAAAAAAAAAAAAAAAAAAAAAAAAAAAAAAAAAAAAAAAAAAAAAAAAAAAAAAAAAAAAAAAAAAAAAAAAAAAAAAAAAAAAAAAAAAAAAAAAAAAAAAAAAIDd+T/i67arIpIepgAAAABJRU5ErkJggg==" vertex="1" parent="1">
                    <mxGeometry x="420" y="130" width="130.76" height="90" as="geometry"/>
                </mxCell>
                <mxCell id="25" value="" style="shape=image;verticalLabelPosition=bottom;labelBackgroundColor=#ffffff;verticalAlign=top;aspect=fixed;imageAspect=0;image=data:image/png,iVBORw0KGgoAAAANSUhEUgAAAQAAAAEACAYAAABccqhmAAAABmJLR0QAAAAAAAD5Q7t/AAAACXBIWXMAAA3XAAAN1wFCKJt4AAAAB3RJTUUH4wgBDjUVEbrkfwAAGE9JREFUeNrtnWt0VOW5x//Pnkkg3L1gamZnZsAAmdlA0dSqtbXY0nMUkmPtOvScD+JZtV12qQsSSJAqKMFLBbklWo/ai12irnUWulaXJqIuWrG11R6UaiFhEgySTCCFA2Jp5JbM7Od8CFRtqQUylz3v/H+fk5nZz36f337fvf97bwExnpJgZIaIXLuna3vt6fx9edPCfwGSs/qGFtz9/jdWHGIFzcViCcwlML58oh1ymi2RjQJET/f/RLRAROYNOZ7YGWmqrcb62T5WkwIgOUI4PG2MHY4sl6S1FdBZg/io8yBoiAwr3ew01X6ZlaUAiMf3ZyAYuTGhfe1QWQRgSGo+Vi5xBa9HmmqbIi/WhlhmCoB4DDtc/lU7FN0iIk8CuCAtXyKohOr2aFNdvb1+fhGrTgGQbK/zA1NtO+Ssg1qbAExL/zfKMBVdOmKYtSPStOBGKIR7gQIgGaakpGKYHY7Wiz+5A9A5QGYbUQAbIk9GNtRtcpoWfJ57hAIgmWr+oFNlFRzdDsVSQLM7FVf9qivyh0hT7bqpr9RdwL1DAZB0NX4ockkgFH3dEn0BQMhT40gwp79f2yPNdYuc9fWF3FsUAEnZdH/i+XY42mjB2iyAly/HjQF0uTusd1ukacFM7jkKgAyCioqKAjsYqbYK/DuhmAdorgRyJkLkxUhz7UZnQ22Ue5ICIGe8zo/M2Hfg6LsQaQAwKkc3Y4br4t3ypgWNZRvmjuJepQDIP2v8cZMm2aHoi5bIRpxBfNfDFIjIvAK3kLFiCoD8I4LBKefY4chyy/VtBWDi+vl8xoopAHKKfRAIRm50Jdl2Ir5r+Bl0ucQV/CbSXLeesWIKIK+xw5On26HIO2mN73rUAoDOPhkrDm+qH8rRQAHkzzr/osmlA/FddxMgU/O3EgOx4qGHe9+LNC24kSODAjC78U/Ed62EezK+S/CJWHFzLWPFFICZYzwQjM62Co7GBuK74JT31ExnrJgCMIpgsLyiNBR9XQTrAQRZkdMYkwOx4jbGiimAnCUUilxoh6OPu2JtVuBKVuSMOQfQ5W5R71bGiimAnOFkfDcJaYPiZtZ40CcIJp2MFU9uromwIBSAZykJOlX7DhyN5Xh816vMSML3R8aKKQDvNX54Srkdim44cZvuRaxI2jgZK24rb669GfX1HL8UQPYYiO9GGy1NbgNwLSuSMS4U4PHIF3o3T9qwkOdXKIBMM91vB52bXXHbB27ThZ81yQoVluu+HmmuW+80LeIVFgog/QRCztV2aN8WiD4O6FhWJOsIoLNd6Y8xVkwBpG+dfyK+K9BX8zu+61kPDFPRpUVHencwVkwBpIzi4qnDGd/NIRSlEHky2lz76qTn6yhqCuDsDymBYHR2wZAE47s56QFcbfn0nUhT7bqyDXO5VKMATp/S0slfsEOR34pgPQSlrEgOj2/BnAK3kE8rpgD+ObY9MWCHok+p5W4G5EvmHRRP9y9dNWzbzznxtOItkea6GRzpFMCncByn0A5GquHzxwDcABj1uisVwbNJS2853X+IbRn1MlT/C8A+w3b1ZEA3RppqmyZvWMjAlmED/awoCTpVlmgDgPEG7t4trqK6J976u7P576mv1A1P9GGhiv4AKXvTsGfoV9VHE77+uzpmPvwXCiDfGj88pdxykw0Q/KuBm/cnqNTvjrf+FIA72A+LNC2cANH7AZ1tYq0UqG97e+RPUV/vUgDGr/Odc+HXpVDcCvMSfP0QPDrU33dXR0dHyo9qA+tnXTswlTaOLa5lVbfPXPk7CsBIpvvt4P6bBo5kON+87dNmcX013d0tO9P5LRVv31xweO/I7whgYh0VkOcs9dW1Vq2IUwCGEAhGvy6WrIXqFAN3YTug83d3bX8pk9/qvDz/3GS/LBWR2wAY9rIPPSJqrTwyYsTyzqvrj1EAuTvdLxO//lAVJq5dP4TKitEjsba1tbUvWz/CeXHhNFfdRgBXGdgd3XB1SaxqzToKIIcoLp46vKAosRAKE89eu4A8kyg4Xru3o2O/V35UeVNdlYg2AhhnYJNsSialpv26VVspAI9vTyAYmSMiKwB8zkC3bYJl1eze1eLJgWivn180cphvHqCLAYw0TryKZ/p9fbUdMx/eTwF4jNJS51K10AjoFca1vaJboUv2xGM5MRWd2DQ/4IP1AMS4UNWJpReWFY8Y+chrV9cnKICsr/MnBuAreABQEwfbEQhW+nFkeWdnZ86djHKa5n/RhdUIweUGTp3bYGHB9pmrX6IAstL4dhGs0fMgRk43VQTPJS2p63m/NbcvRykk0rxgDkxdlimak+JW76hc+z4FkCEG4rtoBNS4E06Avu3CV93T1fKGSVtleKy4T1Ufy8VYcU4JIBB2pomrjRADLzmlOL7rVRgrpgDOYrp/Mr4rtwFqWOgEfRA8lq74rleJNi34ug68P8HAWLG8rXCr2yrXvEEBDIKKioqCffuPfcfk+K6l/up4fNv7yEOmb6r37z3cexNjxRTAKdb5kRnWwBHCMXDst0Fk/u7O1pdBDI8V47CorPJqrNhzArDtyATxy/3mxnd12e548SPAawm2/qeZ3FwTceFbqzDwFm2Pxoo9I4CxY50RQ4ZrnaHx3QQETyT8fUu8FN/1KibHilXxKiy3pm3W2m0UwABWIBi5ASIPClBs4Hh+FUm3Zvfutm1s7TOYCZodK04I8ESf1bck27HirArAHud8Ea42AuYlxQDsVMUde+Lbn2U7nz2Tnr+9xLKSyxkrNkgAhsd3D0OwKlfju17FeaH2UtdCIwDj7vUQoE3End86a+3LRgvgE/HdJQBGmLa8E8FzSZ9V27OzpZstm44KM1acswIoCTpVIvqQAGEDR6aR8V2vkg+xYnX9S9qve7A35wVQEopebAkaofiKgWOxByrLTI/venZZ8Pz8Mtfn+6GhseIeBZalO1acNgEEAuXnSYF1t8nx3WNDkksOtLf3shWzC2PFHhLAQHz3yK0Qaxmgow2c7ud1fNer5EOs2Jdwa1u+uabbswIwPb4rIjXdna2vsN28S9mGuWP97pB7Bfo9mBUr/kCB2rbK1U96TgCB8eUTJSmrAak0cEwdhOo9jO/mFgbFitMaGhqUAMaPHz+6P1FUr6K3ASgwbAwlIPhvy/XVx+PbPmRL5Sa5HCvORGx4UAIIBKOzRbDewHHzKyTd+YzvmoGzvr7QLeq9BYJ7kRux4g6B3rm9ck3aU6QUwN8UXhV3Mr5rJjkQK874rcMUwInCQ7BqqL/vgY6OjuNsFcNnBN6LFSsUT1uWdXvrrJV7M/nF+S4ABeRpv+D2zs7WvWyNPMIjsWIVvAVXqtuqVr2Zje/PXwEI3lJ1q/d0tb3Jbshfshgr7oHqHbHKNU9BoNlrg/wTQI+q3rEnHntqYAZASEZjxUcBfchN+u/PRNafAvh4U48q3FWJYwUr9u3bephDnpxSBBvqvua62gAg9a+SVzS7KvPa/23VrlQN6rKyspGDeZq0lScLvmYfEs6ertjdbH7yWbTOXPVq8fCRlyjwfQAHUtSnMQWuiVWtrkpV8weD5RWloejrR/sKBxV0MloACsRE5JrdXbGqrq72XRze5HR47er6RFvl6h9bfneSqj4EIHmWH3UQiprYka4pbZWrUxIhD4UiF9rh6OOuWJsVuHKwn+c3dB8ehOo9e+KxHw1i55F8nw1cs/YggOrJzTWPnWGsuF+AnycUi3dUrU7JLOLkTXZJyD1QjErVNpomgAQET7h9icU9PTsOcAiTVNBS2RADcE15U12VJdqgwPjP+PNfAjJ/e+WqllR9f0nQqdp34OhaiFyU6m0zSQC/EldrurtjLRyyJB20Va1qctbXv6KnjhW/J9DFqYzvloSnlFuaXAPotenaptwXgOI9BRYzvksysiz4dn0fgMZJz9/+rM+XXKrAf4rK2j7f8Qc6Zj6ckhRpMDjlHNdK1kOTt6a7R3NZAAPx3QLGd0nmab/uwR4A3y/bMHdeqhofmO63g/tvcsW9D4qxmdiOXBSAAvJ0gSULd+1q2cehSLJJqpo/EHK+JrK/AapTMvn7c0wA+oalOi8eb9vCoUdMoLR08kUq7mpAr8tGLjWnBGCptSgeb2Xzk5ynuHjq8IKixEJVdxGAodn6HX7uCkIyigSCkTkiiRXQ7L/chAIgJGPTfedStdAIqGdeb0YBEJL2xp9UopZ/uXrwXZgUACFpwnGcwkO97i0qci+gnnwWIQVASBooCTpVhz5CI0Q8/TRiCoCQFBIOO59LKP4H0K/mwu+1uMsISR2ui7JcaX4KgJA8hwIghAIghFAAhBAKgBBCARBCKABCCAVACDEOJgFJypj2i5oxfX6rwrXkUlF8HoANoFhEn9s+a82drBAFQNLAxKb5AZ/4IoOfD7ofxWau+f2Z/Ev5SzVhcX3XQ/X645AvAfDJ3zzZRhVF3EsUAEkTPsu6Fqo/GfQHubINwNTT+VOnqfbLrsg8JPVbAHweu8uVUAAkHZQ31U0XcVe7wCV8uTIFQPKl8Qem+muh+k0e7SkAkkdEmxfM1qQ8DuAcVoMCIHlCeFP90KIjHz2uqjeyGhQAySOm/aJmzPHDvc8DuIrVoABIHhF5uebC4wnfRgAOq2E2TAKST1G2Ye4o9PteZPNTACT/GFqgQ16A4GKWgksAkn9MgOoEloEzAEIIBUAIoQAIIRQAIYQCIIQYAq8CkMHQCWAzoFsBaydEP3DhfihqqaU6xhUZLZAJKtrBUlEAxAzeA+RnPiReaKlsiLEcFADJD95UterbKlduhPBBABQAyQ8E3QKZu33WqudZDAqA5BdPHi/0V7//jRWHWAoKgOQPSUAWxypXrWApKACSXxyH6rdiVas3sBTmwxwA+ST9IvIfsao1bH4KgOQhbTzZRwEQQigAQggFQAihAAghFAAhhAIghFAAhBAKgBBCARBCKABCCAVACKEACCEUACGEAiCEUACEEAqAEEIBEEIoAEIIBUAIoQAIIRQAIYQCIIRQAIQQCoAQQgEQQigAQggFQAihAAghFAAhhAIghFAAhBAKgBBCARBCKABCCAVACAVACKEACCEUACGEAiCEUACEEAqAEEIBEEIoAEIIBUAIyWX8LEHuk3Tdl3zi+8bgDwfuR6wmBUByjB1Va/cA2MNKEC4BCCEUACGEAiCEUACEEAqAEEIBEEIoAEIoAJaAEAqAEEIBEEIoAI/iChpKgs6V3G3Ei5QEnStdQQMFkDa0whL9rR2KNIXD5WEOOeIFbHtiwA456yzR1wGtoADSjlQm1Gq1w5HlY8c6IzgESXYa3y6yg84i+PwxQOcAEC4BMscwqCwaMgxtgWDkxlwsPsnp6X4VfKNbIbocwEieA8jesiAgIk/aoeibdjh6GYcmSWvjh6IX28Hory3RFwAdl+vbY9JVgMugeMMOOevGjZtczKFKUjvdd861w9FGC/IWBFeZsl2mXQa0AJ3T77oddjhaX1ZWNoRDlwyGioqKAjsYqYZPd0IxD1CfYQ1jJCOgWHqsr3BbIBidzWFMzm6dH5mx78DRdyDSAGCMidtodhBIMEEE60tD0Y3BYNThkCanN92PTLBDkSZLZCMAo8dNXiQBFZjhCt6xw9HGcHjaGA5xcirGjnVG2OFoPXyyDZDKfNjmfIoCF0AxL6F9O+1gpBqAj0OenOyDQDByY+Ew7YBiKYC8OXeUj/cCnAuRBjsUfat0XOQqjv08n+6Ho5fZoegbIvKkAHl39Sifbwa6WF35tR2KNIVCk8axFfKLQGCqbYecdVC8CSBv8yO8GxBSmYS/1Q5Hlp8/adJI1sNsSkoqhtlBZ5H4Ezkb36UAUo4WQWXR0GP+GGPFBjd/0KmSgqMn47u8h4QC+DsRDMSKw9H/DYQjl7MehjR+KHKJHY7+xhJ9QYAwK/IxgzoTPrEs+N7hw/0fQKwrAAw1aYkokO+OGnPBReeec8Gbf/7zfr4zLyfX+eXnjT7vguUC6ycwr/EPQ/BAUUHfzw4ePJg86wVwqgotBdbdULnNtKjkiUKvGurve6Cjo+M428r7VFRUFOzbf+RWiLUM0NGmTVMBedovuL2zs3XvYD8spWvdklD0YkvQCMVXDBxXHaq4c098+7NsMS+v8yMzLJFGAFHzVqjYrJZW7+mM/T5VHynp2QlOlYg+ZOh661fiak13d6yF7eah6f748omS9K0BdJZ5Wyd7VN0798RjTw3MAFL4yWkzcUnFMMt/bC5El8C8M64JCJ5w+xKLe3p2HGD7ZY9weNqYBI7/ACrzARQa1vhHIe5Dx4a49x9ob+9Nyzek3cyBqbb4kz8E9AaYd3ntIFTv2R2P/QhAku2YUaxAMHKDiKwEcIF5m6fNPrjzurrad6VVMZnaHDscvQyKRhiYulIgZonM7+5sfYV9mYmxNHk61G0A8HkDN+9dsbS6e1fsNxmZY2TD2hB50MzctTZb6q+Ox7e9zzblbDIXZpNZKeIn1m01MO/Oqz4IHjs2JLkkXeu2fKOkpGKYVXj0dqjcDmiRYZvXD8HPs3U+KasWHThzK6sNvfe6ByrLdsdbfwrAZRuf3fgMBKP/LoKVAEIGbl/Wryh5Yhp14tptA4x8+oq+7cJX3dPV8gb7+fQJBssrVKxGBcx7E5TiPQUWeyFT4pl1lOnpLRE8l/RZtT07W7rZ3v+YUChyYVKkHirfZao0jwTw12VBHsSK/TiyvLOz8xjb/VQHALkHwCjjjvmQpwssWbhrV8s+T62xvFoxw2PFO1VxB2PFHy8BReQhASIGTvdTHt/NCwF8PDiMjhW/Csuav3tXy9a8bPxxkyZZrm8NgJnmbV364rt5JQBg4CWMsEbPMzlWnPD3Ldnb0bE/Hxo/GJxyjmslFpkc3z1+2Lpv//5Wz99GnlNhCtueGICv4AFDgyAfQnXZ7njxI8BrCUN7/0R811oF6FjzNi8z8d28FcBfRWBwrBhAG4AFu7u2v2TSRgVCztUCtwGQqQbus4zGd/NeAJ88mpgcKxbXV9Pd3bIzp9f5F00utRJ6/4kHcJpGzt8MlvPTaMNjxf0QPDrU33dXR0fHX3LphxcXTx1eUJRYCMUimPW4uJP75ecm3A5uzDratiMT4MMaQ2PFf4JKfY7Eik/Gd1cBCJq2IwT4pShq4vHtrYZsj1mYHSuWLa6iuife+jsv/rrS0slfUCvZCMiXzFuReSe+SwH8E/IiVmxJXc/7rXFvNP6kEvX5lkLxPZj3qHmjHwpr9AswDI8VH4FgZTZjxY7jFB7qdW8xNL7rAvKMF+O7FMCZLgtMjhUruhW6ZE88ti6zSy2nyhJtADDewJp6Or5LAQxi0JobK9bXYPmq0x0rLglPKbc0uRbANQa2Q07EdymAQWB4rNgF5Jl+v69u386t/5faujnnwq9LobgVgN+wNsip+C4FkJIBbXqsWFaMHom1ra2tfYP7qOl+O7j/JgjuY3yXAjBPBOOcL8LVh2BkrFjaAXfB7q7YhrP570DI+ZoIGqA6xcBd/45YWpOL8V0KIPUYHSseCK9IdTzeuv00p/tl4tcfqmK2gfua73KgAE7N2LHOiCHDtQ6KHyAPY8V5EN991I/CpZ2d7/6Zo50C+IwjoNGx4gNQve9vjoASCEbmiMgKAJ8zcwZkTnyXAsgQJseKBfiDqFSr4rhaaAT0CuN2oKHxXQoggziOU/iXj3SuQu4y813zJo4DOSTQe0eNkIcHfxWEAiAwPlZsCnkR36UAsrksMPtpxbk8l8mb+C4F4InzA0Y/rTiXhnDexXdTCaeyZ0nvof07Ro8c8mPI0F4ILodxT7f1fOMfheia40fk23v/tP0t1oMzgKxheKzYi/P9Zr/o3M7Otk7WggLwjgiMjhV7AsZ3KQDPY/jTirMC47s8B5A789PeQwf+OLTwgsf8hegHcAWMu302Y/RD8IhfCq+Pd7X8GjzJxxlA7p0fMDpWnM6ByfguBWAOZj+tOJXzJ8Z3M7peZQkyQ0889svi84suhmoNIIdYkb/jIwiWDS3sm8Lm5wzAaBgr/hSM71IAebosCEUvthQNEFyVp9N9xncpAJJ/sWLGd70CLwN6gPyJFTO+yxkA+UzMjRUzvksBkNMXwUCsuBHA5Tm+KYzvUgDkLMnlWPEHUL2X8V2eAyCDmDfnYKy4H4JHCn3Hru/qfI/xXc4ASOrOD3g7Vsz4LgVAMoDnYsWM7+buGpMlyD08FCtmfJczAJJNshQrZnyXAiCeWhZkKlbM+C4FQLx8fiBdsWLGd02ElwENI/WxYsZ3OQMgOcngY8WM71IAJPdFcOaxYsZ3KQBiGKcTK2Z8l+cAiKF8VqyY8d085f8BFCPmJnJxCowAAAAASUVORK5CYII=;" vertex="1" parent="1">
                    <mxGeometry x="590" y="410" width="60" height="60" as="geometry"/>
                </mxCell>
                <mxCell id="7" value="nexus" style="text;html=1;strokeColor=none;fillColor=none;align=center;verticalAlign=middle;whiteSpace=wrap;rounded=0;" vertex="1" parent="1">
                    <mxGeometry x="590" y="380" width="60" height="30" as="geometry"/>
                </mxCell>
            </root>
        </mxGraphModel>
    </diagram>
</mxfile>